<?xml version="1.0" encoding="UTF-8" standalone="no"?>
<!-- Created with Inkscape (http://www.inkscape.org/) -->

<svg
   width="285.3667mm"
   height="155.24602mm"
   viewBox="0 0 285.36669 155.24602"
   version="1.1"
   id="svg5"
   inkscape:version="1.1 (c68e22c387, 2021-05-23)"
   sodipodi:docname="jazz.svg"
   xmlns:inkscape="http://www.inkscape.org/namespaces/inkscape"
   xmlns:sodipodi="http://sodipodi.sourceforge.net/DTD/sodipodi-0.dtd"
   xmlns="http://www.w3.org/2000/svg"
   xmlns:svg="http://www.w3.org/2000/svg">
  <sodipodi:namedview
     id="namedview7"
     pagecolor="#ffffff"
     bordercolor="#666666"
     borderopacity="1.0"
     inkscape:pageshadow="2"
     inkscape:pageopacity="0.0"
     inkscape:pagecheckerboard="0"
     inkscape:document-units="mm"
     showgrid="false"
     inkscape:zoom="0.77771465"
     inkscape:cx="379.3165"
     inkscape:cy="363.24377"
     inkscape:window-width="1953"
     inkscape:window-height="1081"
     inkscape:window-x="314"
     inkscape:window-y="475"
     inkscape:window-maximized="0"
     inkscape:current-layer="layer1"
     fit-margin-top="5"
     fit-margin-left="70"
     fit-margin-right="70"
     fit-margin-bottom="5"
     lock-margins="false" />
  <defs
     id="defs2">
    <clipPath
       clipPathUnits="userSpaceOnUse"
       id="clipPath838">
      <path
         d="M 0,500 H 500 V 0 H 0 Z"
         id="path836" />
    </clipPath>
  </defs>
  <g
     inkscape:label="Lag 1"
     inkscape:groupmode="layer"
     id="layer1"
     transform="translate(31.095705,-52.41571)">
    <path
       d="m 158.76337,99.509506 0.81244,-1.421341 -0.6096,-3.045178 -0.60854,-2.029883 -2.63948,-0.410281 1.01494,7.312378 z"
       style="fill:#fc6d11;fill-opacity:1;fill-rule:nonzero;stroke:none;stroke-width:0.352778"
       id="path892" />
    <path
       d="m 77.357425,71.859137 2.030236,1.218142 3.247672,4.669014 0.812095,2.030236 c 0,0 2.26448,2.159705 3.045178,3.491794 0.508705,0.868186 1.015294,2.842331 1.015294,2.842331 l 1.014942,2.841977 -0.812448,1.014942 v 1.218142 l 3.248378,3.451225 0.812095,1.624188 -0.406753,1.217789 -1.623484,1.015295 0.202848,2.029888 h 1.015294 l 0.406047,0.40604 26.188101,-4.263317 2.02989,-1.014942 0.2032,-1.623836 -0.8121,-1.420989 -1.21779,-1.827036 c 0,0 0.33479,-1.251302 0.81175,-1.624541 0.49106,-0.383823 1.82703,-0.406048 1.82703,-0.406048 l 2.43593,2.842331 h 0.60925 l -0.40605,-2.436283 0.40605,-1.623836 c 0,0 0.84032,-1.045987 1.42134,-1.014942 0.81351,0.04339 1.82704,1.624189 1.82704,1.624189 l 2.23238,-1.015295 1.42134,0.609248 0.81209,2.841624 1.4217,0.4064 0.20284,-1.015294 1.82669,-1.218142 -0.81139,1.421342 -0.40676,1.015294 2.02989,1.217789 21.11304,-4.465813 7.10495,-1.624542 4.08869,-2.384778 C 154.39315,67.739399 134.19627,57.41571 111.58745,57.41571 c -16.248236,0 -31.250817,5.333294 -43.354269,14.342886 3.189817,-0.756356 6.500283,-1.473553 9.124244,0.100541"
       style="fill:#fc6d11;fill-opacity:1;fill-rule:nonzero;stroke:none;stroke-width:0.352778"
       id="path894" />
    <path
       d="m 61.319795,179.69695 -3.451225,-5.07506 -2.84233,-5.27826 -3.85692,-8.93198 0.36442,-0.0526 -0.770467,-0.96274 -4.262967,-8.32414 -0.609247,-5.88645 -1.014941,-7.71419 -0.406048,-4.46617 1.420989,-3.24873 2.436284,-5.27791 3.654072,-8.72913 -0.824089,-1.82704 2.423583,-6.29285 1.648531,-0.20355 4.262966,0.60925 4.216047,1.21038 -5.027789,-1.61608 -0.203199,-2.43628 L 55.43264,97.682117 54.417345,94.43374 53.203437,86.803862 C 44.220656,98.89779 38.904295,113.87709 38.904295,130.09922 c 0,20.50697 8.495948,39.02675 22.155856,52.2418 l 0.665691,-1.83162 z"
       style="fill:#2d2e40;fill-opacity:1;fill-rule:nonzero;stroke:none;stroke-width:0.352778"
       id="path896" />
    <path
       d="m 152.06447,99.306306 1.21814,1.217794 1.62419,-0.2032 -1.42134,-7.104949 -5.07577,0.608541 1.21814,5.481814 z"
       style="fill:#fc6d11;fill-opacity:1;fill-rule:nonzero;stroke:none;stroke-width:0.352778"
       id="path898" />
    <path
       d="m 106.18431,109.45608 h 3.65407 v -0.81104 c 0,0 2.07892,-1.75578 3.24802,-2.43664 1.46756,-0.85337 4.66972,-2.03023 4.66972,-2.03023 l -0.6096,-5.277911 -9.13518,1.826681 c 0,0 -2.16005,0.10301 -3.04517,0.60502 -0.93063,0.52775 -1.82704,2.23731 -1.82704,2.23731 0,0 -0.10372,1.68099 0.20249,2.43629 0.56127,1.38042 2.84269,3.45052 2.84269,3.45052"
       style="fill:#fc6d11;fill-opacity:1;fill-rule:nonzero;stroke:none;stroke-width:0.352778"
       id="path900" />
    <path
       d="m 184.27096,130.09922 c 0,-12.53666 -3.17429,-24.33179 -8.76229,-34.626197 -0.28752,0.187678 -0.72672,0.417689 -1.11337,0.382058 -0.69321,-0.06456 -1.33491,-0.522816 -1.82704,-1.015294 -0.49283,-0.492831 -1.01564,-1.826683 -1.01564,-1.826683 l -3.43853,-1.827037 h -3.86997 l -3.04447,0.608542 1.21814,5.684308 -0.40605,1.827389 c 0,0 2.03024,-4.872566 2.03024,-2.84233 v 2.030236 l -1.4217,3.045178 -2.23273,2.02988 -1.82703,-1.42063 -5.4804,0.81174 -2.43664,1.42063 v 2.63913 l -8.93269,1.0153 v -1.82704 l -4.46581,1.42134 c 0,0 0.33655,1.44322 0,2.02989 -0.37641,0.65405 -1.71662,1.17263 -2.23026,1.3522 l 6.49287,8.59507 -9.94692,9.33803 -8.72913,7.7149 -5.07542,6.90174 -4.06082,3.24873 -3.04483,1.42099 -7.71454,1.82633 0.4064,1.62454 1.62384,4.87151 0.0868,0.34996 1.74025,5.33506 1.21814,6.90245 1.82704,6.09 1.21814,4.26261 4.68172,23.16798 c 38.21006,-2.15195 68.53272,-33.81411 68.53272,-72.56251"
       style="fill:#86112e;fill-opacity:1;fill-rule:nonzero;stroke:none;stroke-width:0.352778"
       id="path902" />
    <path
       d="m 104.56012,126.10331 1.42099,-2.23309 3.04518,-0.60924 0.4064,-1.21779 1.82738,-1.2185 0.60819,-1.21779 2.84233,-2.43628 1.42099,-1.82704 2.02953,-2.84197 2.43664,-1.21744 v -0.6096 l 0.20285,-0.36195 -0.8121,-0.0448 -11.97716,1.21884 c 0,0 -2.8201,0.54293 -4.06047,0 -1.09643,-0.48013 -2.43558,-2.63913 -2.43558,-2.63913 0,0 -1.09467,-1.81892 -1.21849,-2.84197 -0.0984,-0.81739 0.40675,-2.43629 0.40675,-2.43629 l 0.20285,-2.02988 -7.714897,1.42099 -4.513086,2.55093 -0.155575,1.71203 -0.202848,3.24803 c 0,0 -0.99695,1.74731 -1.827388,2.23308 -1.007887,0.59055 -3.450873,0.60925 -3.450873,0.60925 h -1.218494 l -0.297039,1.18886 0.906286,1.45027 1.623836,3.65407 5.481108,4.66902 2.436637,0.81209 4.060119,0.6096 1.014942,-0.81245 0.608541,0.81245 1.421695,0.20285 H 100.5 l 0.60925,1.21743 3.24837,-0.20249 z"
       style="fill:#2d2e40;fill-opacity:1;fill-rule:nonzero;stroke:none;stroke-width:0.352778"
       id="path904" />
    <path
       d="m 138.05672,97.27607 1.42064,2.030236 h 1.21884 l 0.81104,1.420634 5.68466,-1.623834 -0.60925,-5.278614 -10.55652,2.030589 c 0,0 -0.33443,1.086203 0,1.420989 0.47907,0.47872 2.03059,0 2.03059,0"
       style="fill:#fc6d11;fill-opacity:1;fill-rule:nonzero;stroke:none;stroke-width:0.352778"
       id="path906" />
  </g>
</svg>
