<?xml version="1.0" encoding="utf-8"?>
<!-- Generator: Adobe Illustrator 18.1.1, SVG Export Plug-In . SVG Version: 6.00 Build 0)  -->
<svg version="1.1" id="Layer_1" xmlns="http://www.w3.org/2000/svg" xmlns:xlink="http://www.w3.org/1999/xlink" x="0px" y="0px"
	 viewBox="0 0 479.5 105.7" enable-background="new 0 0 479.5 105.7" xml:space="preserve">
<g>
	<path fill="#0D4FA7" d="M54.9,33.5c0-12-9.7-21.8-21.6-21.8c-12,0-21.6,9.7-21.6,21.8c0,12,9.7,21.8,21.6,21.8
		C45.2,55.2,54.9,45.5,54.9,33.5 M102.3,34.3c0-4.7-3.8-8.6-8.5-8.6c-4.7,0-8.5,3.8-8.5,8.6c0,4.7,3.8,8.6,8.5,8.6
		C98.5,42.9,102.3,39,102.3,34.3 M122.9,54.2c2.2-0.4,4.9-8.2,0.7-7.8c-29.4,2.1-30.2,2-59.5,0c-4.2-0.4-1.5,7.4,0.7,7.8
		c13.1,2.6,16.5,3.2,16.5,6.9c-0.4,6.1-0.6,11.6-8.8,35.4c-1.9,4.5,6.5,3.1,7.5,0.8C85.2,87.1,88.5,79,92,75c0.9-1.1,2.8-1.1,3.6,0
		c3.5,4,6.8,12.1,12.1,22.3c1,2.3,9.4,3.6,7.5-0.8c-8.2-23.9-8.4-29.4-8.8-35.4C106.4,57.4,109.7,56.8,122.9,54.2 M145.9,42.9v47.9
		c0,7.5-5.2,14.9-14.6,14.9H46.9c-9.9,0-13.7-8.7-13.7-14.9V73.5c0-3.2-2.3-6.7-6.3-7.2C11.6,63.3,0,49.7,0,33.5C0,15,14.9,0,33.3,0
		c10.4,0,19.8,4.8,25.9,12.4c3,3.8,6.3,3.6,9.1,2.1c7.6-4.3,13.7-7.8,14.6-8.3c4-2.3,7.8-3.1,12.8-0.2c2.3,1.4,39.1,22.7,45.2,26.3
		C145.8,35.2,145.9,38.3,145.9,42.9"/>
	<path fill="#0D4FA7" d="M478.3,48.1l-14.1,4.2C462.9,46.4,458.7,42,451,42c-6.4,0-11,3.9-11,8.3c0,3.6,2.3,6.8,7.8,7.8l10.5,1.9
		c13.9,2.6,21.3,11.5,21.3,22.1c0,11.6-9.8,23.4-27.6,23.4c-18,0-27.8-9.1-30.1-23.3l14.5-3.4c1.2,8.2,7.9,12.7,16.1,12.7
		c7.2,0,11.3-3.8,11.3-8.5c0-3.7-3.3-6.8-8.5-7.9l-10.6-2.1c-12.1-2.4-20-10.2-20-21.6c0-13.4,12.1-23.4,26.6-23.4
		C468.5,28,476.9,38.4,478.3,48.1"/>
	<path fill="#0D4FA7" d="M398.3,66.8c0-13-10.2-23.6-23.1-23.6c-13,0-23.2,10.6-23.2,23.6c0,13,10.2,23.7,23.2,23.7
		C388.1,90.5,398.3,79.7,398.3,66.8 M375.3,28c21.7,0,38.9,16.9,38.9,38.5c0,21.8-17.6,39-39.2,39c-21.7,0-38.9-16.9-38.9-38.6
		C336.1,45.2,353.7,28,375.3,28"/>
	<path fill="#0D4FA7" d="M309.3,51.5c0-6.2-5.7-8-10.9-8h-13.9v16.2h12.8C302.9,59.7,309.3,58.3,309.3,51.5 M300.8,90
		c5.6,0,11.8-1.6,11.8-8.3c0-6.9-6.5-8.4-12.3-8.4h-15.8V90H300.8z M314,65.3c8.9,3.4,13.8,8.4,13.8,18.3
		c0,15.3-13.5,20.8-26.8,20.8h-31.6V29.2h31.2c12.1,0,24,6.4,24,19.9c0,7.5-4,12.7-10.5,16.1V65.3z"/>
	<path fill="#0D4FA7" d="M240.6,66.8c0-13-10.2-23.6-23.1-23.6c-13,0-23.2,10.6-23.2,23.6c0,13,10.2,23.7,23.2,23.7
		C230.4,90.5,240.6,79.7,240.6,66.8 M217.6,28c21.7,0,38.9,16.9,38.9,38.5c0,21.8-17.6,39-39.2,39c-21.7,0-38.9-16.9-38.9-38.6
		C178.3,45.2,196,28,217.6,28"/>
	<path fill="#FFFFFF" d="M123.6,46.4c4.2-0.4,1.5,7.4-0.7,7.8c-13.1,2.6-16.5,3.2-16.5,6.9c0.4,6.1,0.6,11.6,8.8,35.4
		c1.9,4.5-6.5,3.1-7.5,0.8C102.4,87.1,99.1,79,95.6,75c-0.8-1.1-2.8-1.1-3.6,0c-3.5,4-6.8,12.1-12.1,22.3c-1,2.3-9.4,3.6-7.5-0.8
		c8.2-23.9,8.4-29.4,8.8-35.4c0-3.6-3.3-4.2-16.5-6.9c-2.2-0.4-4.9-8.2-0.7-7.8C93.3,48.4,94.1,48.5,123.6,46.4"/>
	<path fill="#FFFFFF" d="M93.8,25.7c4.7,0,8.5,3.8,8.5,8.6c0,4.7-3.8,8.6-8.5,8.6c-4.7,0-8.5-3.8-8.5-8.6
		C85.3,29.5,89.1,25.7,93.8,25.7"/>
	<path fill="#00AA79" d="M33.3,11.7c11.9,0,21.6,9.7,21.6,21.8c0,12-9.7,21.8-21.6,21.8c-12,0-21.6-9.7-21.6-21.8
		C11.6,21.4,21.3,11.7,33.3,11.7"/>
</g>
</svg>
