<?xml version="1.0" encoding="utf-8"?>
<!-- Generator: Adobe Illustrator 22.1.0, SVG Export Plug-In . SVG Version: 6.00 Build 0)  -->
<svg version="1.1" id="Layer_1" xmlns="http://www.w3.org/2000/svg" xmlns:xlink="http://www.w3.org/1999/xlink" x="0px" y="0px"
	 viewBox="0 0 342 110.5" style="enable-background:new 0 0 342 110.5;" xml:space="preserve">
<style type="text/css">
	.st0{fill:#BCA570;}
	.st1{fill:#BC9F6D;}
	.st2{fill:none;stroke:#BC9F6D;stroke-width:0.758;}
</style>
<g>
	<path class="st0" d="M108.1,94.3L108.1,94.3C108.2,94.3,108.4,94.4,108.1,94.3"/>
	<path class="st0" d="M142.2,58.2h0.7c-0.2,0.2-0.4,0.4-0.7,0.7C142.2,58.6,142.2,58.4,142.2,58.2 M142.1,59.5
		c-0.9,1.1-1.4,2.4-1.6,3.7c0,0.1,0,0.3,0,0.3c-1.3,1.8-0.5,3.8-0.7,5.7c-0.1,0.5,0.2,1.1,0.4,1.6c0.3,0.8,0.3,1.6,0.3,2.3
		s0,1.3-0.3,2c-0.3,0.5-0.2,1.2-0.4,1.8c-0.1,0.5-0.3,0.9-0.6,1.3c-0.3,0.4-0.6,0.7-1.1,1.1c-1.4-0.2-2.8-0.3-4.5-0.5
		c0.2-0.2,0.3-0.5,0.5-0.6c0.6-0.3,1.3-0.6,2-0.9c0.5-1.2,0.6-3.3,0.2-4.8c-0.1-0.3-0.2-0.7-0.1-1c0.4-2.2,0.4-2.2-0.3-4.3
		c-0.3-0.9-0.4-1.8-0.7-2.7c-0.1-0.2-0.1-0.6,0-0.9c0.6-1.4,1.3-2.7,2-4.1c0.1-0.1,0.2-0.2,0.4-0.3c0.1,0.9,0.1,0.9-0.6,1.7h1.4
		c0.3-0.5,0.6-1.1,1.1-1.9c0.2,0.3,0.4,0.6,0.6,0.9c0.9,0.2,1.4-0.9,2.3-1C142.2,59.1,142.2,59.4,142.1,59.5 M139.4,57.1L139.4,57.1
		L139.4,57.1c0,0.2-0.1,0.3-0.2,0.4l-0.1-0.1C139.2,57.2,139.3,57.1,139.4,57.1 M141.3,56c0.9,0,1.7,0,2.4,0
		c0.3,0.2,0.5,0.4,0.7,0.6c-0.2,0.6-0.6,1-1.1,1.2c0.1-0.5-0.2-0.8-0.8-1.1c-0.2,0.2-0.5,0.5-0.8,0.7c-0.2-0.2-0.5-0.5-0.7-0.7h-1.2
		C140.1,56.2,140.7,56,141.3,56 M131.8,92c2.7-0.1,5.3,0.6,8,0.4c0.3,0,0.7,0.2,1.3,0.4c-1.4,0.8-2.6,1.5-3.7,2.1v1.6
		c0.2,0.2,0.6,0.4,1,0.7c1,0.1,2.3,0.3,3.7,0.5c-1,0.5-1.7,0.7-2.6,0.7c-1.9,0-3.8,0-5.6,0c-0.8,0-1.5,0.2-2.3-0.3
		c-0.6-0.4-1.4,0.2-2.1-0.4c-0.4-0.3-1.1,0-1.7,0c-1-0.9-2.4-0.6-3.4-1.4c-1.2,0.1-2.1-1.2-3.3-0.7c-0.6-0.6-1.2-0.7-1.9-0.8
		c-0.6,0-1.1-0.3-1.7-0.6c-0.7,0-1.4-0.2-2.1-0.4s-1.4,0-1.8,0c-1.1-0.7-2-1.3-2.8-1.9c-0.7-0.4-1.5-0.3-2.2-0.7
		c-1.1-0.5-2.3-0.8-3.5-1.1V89c0.3-0.2,0.5-0.4,0.8-0.5c1-0.4,1.9-0.8,3.1-0.7c1,0.1,2-0.5,3-0.3c2,0.3,4.1,0.5,6.1,1.1
		c1.4,0.5,3,0.6,4.4,1.3c0.1,0.1,0.3,0.2,0.4,0.3c1.3,0,1.3,0.1,2.9,0.7c0.5,0.2,1,0.4,1.6,0.4c0.7,0,1.4,0.2,2.1,0.3
		c0.7,0.1,1.4-0.2,2,0.3C131.4,92.1,131.6,92,131.8,92 M111.2,102c-0.2,0.7-0.7,1.4-1.9,1.6c-1.1,0.3-2.6,0.6-4.1,0.9
		c-0.2,0-0.4,0.2-0.6,0.2c-1.3,0.1-2.6,0.3-3.9,0.7c-0.5,0.2-1.2,0-1.8,0c-1.5,0-3.1-0.2-4.6,0.1c-2.5,0.5-5,0.2-7.4,0.3
		c-1.1,0-2.2-0.3-3.4-0.3c-1.2-0.1-2.4,0.2-3.5-0.1s-2.3,0-3.2-0.4c-1.1-0.4-2.1-0.1-3.1-0.3c-0.2,0-0.4,0-0.5,0
		c-1-0.8-2.2-0.7-3.3-0.9c-1-0.2-1.9-0.6-2.9-0.9c0,0-2.2-1-2.3-0.9c-0.1-0.1-0.2-0.2-0.2-0.3c0,0-0.9-0.4-1-0.9
		c-0.1-0.6-0.3-1.2-0.3-1.8c-0.1-0.6,0-1.2,0-1.8V96c1.2,0.1,2.3,0.3,3.5,0.4c0,0.1,0.8,0.3,0.8,0.3c0.3,0.1,0.7,0.1,1,0.2
		c0.5,0.1,1.1,0.2,1.8,0.3c-0.1,0.1,2.9,0.4,3.9,0.9c0.1,0.1,0.3,0.1,0.5,0.1c2,0,3.9,0.6,5.8,0.4c0.5-0.1,1.1,0.2,2,0.5
		c0.2,0,0,0,0.2-0.1c2.2-0.2,4.3,0,6.5-0.1c1.2,0.1,2.9,0.1,2.9,0.1c2.3-0.1,4.6-0.3,6.9-0.4c0.9-0.1,1.8-0.3,2.7-0.3
		c0.9-0.1,1.8,0.2,2.6-0.1s1.7,0,2.3-0.4c0.8-0.5,1.5-0.1,2.1-0.5c0.7-0.3,1.4-0.7,2.1-1.1C112,98.1,111.6,100.1,111.2,102
		 M60.2,93.4c-1.3-0.1-2.9,0.3-4.8,1c-1,0.1-2.2,0.3-3.4,0.4c-0.2,0-0.3,0.2-0.4,0.2c-0.7,0.4-1.4,0.7-2.2,0.4
		c-0.7,0.7-1.5,0.7-2.3,0.8c-1.2,0.1-2.4,0.3-3.5,0.8c-0.3,0.1-0.6,0.2-1,0.2c-2,0-4,0.1-6,0c-0.9,0-1.7-0.3-2.8-0.5
		c1.1-0.6,1.8-1.6,3.2-1.6c0-0.3,0-0.7,0.1-1.2c-0.8-0.7-1.6-1.5-2.4-2.3c1,0,2,0,3,0c1.7,0,3.3-0.2,5-0.7c0.8-0.2,1.7-0.2,2.5-0.4
		c0.8-0.2,1.8,0,2.5-0.4c0.8-0.5,1.6-0.1,2.4-0.6c0.6-0.4,1.5-0.1,2.3-0.4c1.1-0.3,2.2-0.3,3.3-0.4c1.5-0.6,0.5-1.4,12.5-1
		c0.7,0.4,1.3,0.7,2,1.1c-0.1,0.3-0.3,0.6-0.4,0.9c-1.1,0.4-2.2,0.8-3.3,1.2c-0.3,0.1-0.6,0.3-0.9,0.3
		C63.7,91.3,62.3,92.4,60.2,93.4 M46.4,73.4c0.4-0.6,0.9-1.3,1.4-1.9c1.2-1.6,2-3.4,2.5-5.3s0.9-3.9,1.1-5.9
		c0.2-1.7,0.2-3.4,0.3-5.1c0-0.7-0.2-1.4-0.3-2.1s0.3-1.5-0.3-2.2c-0.1-0.1,0-0.3,0-0.5c0.1-0.6,0.5-1.3,0.3-1.8
		c-0.3-0.6-0.3-1.2-0.3-1.8c0-0.5,0.1-1.1,0.4-1.4c0.8-0.8,1.2-1.8,1.8-2.7h2.3c0,0.4,0.1,0.9,0.1,1.5c0.7-0.1,1.3-0.2,2.2-0.3
		c0.5,0.1,1.2,0.2,2.1,0.4c-0.9,0.4-1.7,0.7-2.5,1c-0.6,1.3-0.6,1.3-0.1,2.4c-0.3,0.7-0.7,1.3-1.1,2.1c1.2,1.8,2.1,3.7,2.8,5.8v1.3
		c-0.4,0.6-0.7,1.1-1,1.5c0.1,0.3,0.3,0.6,0.4,0.9h8.3c0,0.2,0.1,0.4,0.1,0.8h-4.5c-0.5,0.7-1.3,0-1.9,0.5c-0.3,0.2-0.6,0.3-1.2,0.6
		c-1.2-0.1-2.7-0.3-4.2-0.4c-0.3,0.2-0.5,0.4-0.8,0.6c0.4,0.4,0.7,0.8,1,1.1h1.1c0.3,0.3,0.6,0.6,0.9,1c0,0.1,0,0.3-0.1,0.4
		c-1.1,2.3-2.3,4.7-3.2,7.1c0,0.1-0.2,0.2-0.2,0.3c0.2,1.3-0.7,2.1-1.4,2.8c-0.8,0.2-1.4,0.4-2.1,0.6c0.5,1,0.9,1.8,1.4,2.9
		c-0.2,0.8-0.5,1.8-0.8,2.9c-1.1,0.9-2,2.3-3.5,3.1c-0.8,0.4-0.7,1.3-1,2C46.2,86,46.2,86.4,46,87c0.3,0.3,0.7,0.7,1.2,1.2
		c-0.3,0.3-0.5,0.5-0.7,0.8c-1.2-0.8-1.4-1.6-1.1-2.9c0.2-0.9,0.9-1.6,0.9-2.6c0-0.4,0.6-0.8,0.6-1.3c0.1-0.6,0-1.3,0-1.9
		c-0.6-0.9-1.1-1.7-1.8-2.6C45.1,76.2,45.4,74.7,46.4,73.4 M61,53.5c0.6-0.5,1.3-0.8,2.2-0.6c-0.6,0.8-1.2,1.4-1.9,2h-0.8
		c-0.1-0.1-0.1-0.1-0.1-0.1C60.6,54.4,60.8,54,61,53.5 M64,53.9h1.2c0.2,1.2,0.7,2.5,0.4,3.8h-4.8v-1.2C62.1,55.9,63.5,55.4,64,53.9
		 M63.6,52.5c0-0.1,0.1-0.2,0.2-0.3l0.1,0.1C63.8,52.4,63.8,52.5,63.6,52.5L63.6,52.5L63.6,52.5 M56.3,81.8c-0.1-0.2,0-0.8-0.3-1.1
		c-0.7-0.7-0.7-2.1-1.9-2.3c-0.8-0.1-1-0.8-1.3-1.5v-1.7c0.8-0.5,1.8-0.4,2.6-0.8s1.8,0.3,2.3,1.1c0.9,1.4,0.6,2.7,0.2,4.1
		c-0.1,0.5-0.3,0.9-0.6,1.5c1.1,1.7,1.6,4.2,4.6,4.2c-0.3,0.8-0.9,0.6-1.4,0.6C59.1,84.6,57.7,83.2,56.3,81.8 M57.4,86.5
		c-2.5,0.6-4.9,1.2-7.1,1.7c-0.8-0.5-1.4-0.8-2.1-1.3c-0.1-0.1-0.2-0.5-0.4-0.8c0.2-0.5,0.3-0.9,0.5-1.4c0.8-0.7,2-0.8,2.8-1.7
		c0.7-0.9,1.5-1.7,2.3-2.7c0.9,0.7,1.2,1.4,1.1,2.3C55.4,83.8,56.4,85.1,57.4,86.5 M67.9,93.4c0.3-0.3,0.6-0.5,1-0.9h1.3
		C69.3,93,68.8,93.6,67.9,93.4 M67.9,94.6c0.7-0.2,1.3-0.3,2.4-0.6c-0.4,0.5-0.5,0.8-0.7,0.8c-0.3,0.1-0.6,0-0.9,0
		c-0.2,0.1-0.4,0.3-0.9,0.5L67.9,94.6L67.9,94.6z M105,93.6c1.3-0.5,2.2,0.1,3,0.6c0.1,0,0.1,0,0.1,0c0.1,0,0.3-0.1,0.4-0.1
		c0,0,0.1,0.1,0.4,0.4C107.1,94,106.2,93.8,105,93.6 M106,95.1C106.1,95.2,106.1,95.2,106,95.1c0.2,0.1,0.3,0,0.4,0s0.1,0.1,0.4,0.4
		c-0.3-0.1-0.4-0.1-0.6-0.2c0,0-0.1,0-0.2,0l0,0c-0.7-0.2-1-0.2-1.4-0.2c0-0.1,0.1-0.3,0.1-0.3C105.1,94.9,105.6,94.6,106,95.1
		 M69.3,69.8c0.9,2.1,1.9,4.2,3.4,6c1.5,1.9,2.8,3.8,4.5,5.5c0.5,0.5,0.8,1.1,1.3,1.6c1.4,1.3,2.9,2.5,4.4,3.7
		c0.5,0.4,1.2,0.6,1.6,1.1c1,1,2.2,1.2,3.5,1c1.1-0.1,2.1-0.7,2.9-1.4c1.7-1.5,3.5-2.9,4.9-4.6c2.6-2.9,5.4-5.6,7.4-9.1
		c0.6-1.1,1.4-2.1,1.6-3.4c1.5-2.1,1.9-4.7,2.9-7.1c0.5-0.1,0.9-0.3,1.4-0.4c0.3-0.1,0.6-0.2,0.8-0.1c1.8,0.7,3.7,0.2,5.6,0.4
		c0.7,0.5,1.2,1.2,1.2,2.3c0,0.4,0.2,0.7,0.4,1.1c0.7,1.3,1.4,2.6,1.7,4.1c0.1,0.5,0.5,1,0.8,1.5c-2.4,0.8-4.3,2.3-5.4,4.9
		c-0.3,1,0,2.2,0.7,3.3c0.6,0.9,0.1,1.7,0.4,2.5c-0.9,0.3-1.6,1-2.7,0.9c-0.3,0-0.8,0.4-1.1,0.7c-0.5,0.4-0.9,0.9-1.4,1.4H106
		c-0.5,0.3-0.8,0.5-1.2,0.7c-2.1,0.8-2.6,2.6-2.9,4.6c-0.1,0.9,0.2,1.9-0.3,2.9c-0.2,0.3-0.2,1,0.2,1.5c0.3,0.4,0.1,0.9-0.4,1.2
		c-1.4,0.1-2.9,0.3-4.3,0.4c-1.5,0.1-3.1,0-4.6,0c-3.5,0-7,0-10.6,0c-1.7,0-3.4,0-4.9-0.4s-3-0.1-4.5-0.3c-0.9-1-0.7-2.4-0.5-3.5
		c0.4-1.8,0.3-3.4-0.2-5.2h-0.9c-0.6-0.4-1.1-0.7-1.6-1.1h-2.5c-0.2-0.2-0.3-0.4-0.5-0.7h-1.9c-0.6-0.8-1.2-1.5-1.7-2.2h-2
		c-0.4-0.4-0.9-0.8-1.3-1.3c0.3-1.6,0.7-3.2,1-4.9c-1.1-2.5-1.2-3.6-5.3-5.2c0.1-0.3,0.1-0.6,0.2-0.9c1.4-2.9,2.7-5.8,4.2-8.8
		c2.3,0.1,4.4-1.2,7-0.6c0.3,0.8,0.7,1.6,1,2.5C68.1,66.1,68.5,68.1,69.3,69.8 M67.5,46.7c0-0.5,0-1.1,0-1.6c0-0.8,0.5-1.5,0.7-2.1
		c1.4,0,2.7,0,4,0c1.3,0,2.7,0,4,0c1.2-0.1,2.5-0.3,3.7-0.3c1.2-0.1,2.3,0,3.5,0c1.1,0,2.2,0.5,3.4,0.4c1.1-0.1,2.2,0,3.3,0
		c1.2,0,2.4-0.2,3.5,0c2.4,0.5,4.8,0.2,7.3,0.3c2.4,0.1,4.8,0,7.2,0c0.9,2.1,0.4,4.2,0.5,6.3c-0.8,0.6-0.1,1.6-0.7,2.4
		c-0.3,0.4-0.1,1.1,0,1.7c0,1.3-0.4,2.5-0.7,3.8c0,0.1,0,0.3,0,0.3c-0.8,0.7-0.9,1.7-1.4,2.7c1,1.1,0.1,2.2-0.2,3.2
		c-0.7,2.2-1.5,4.4-2.6,6.5c-0.3,0.6-0.7,1.1-1.1,1.7c-1.2,1.6-1.8,3.6-3.2,5.2c-0.1,0.2-0.2,0.4-0.4,0.6c-2.1,2.2-4.1,4.4-6.2,6.6
		c-0.7,0.7-1.4,1.3-2.4,1.4c-0.6,0.1-1.1,0.6-1.8,1h-1.6c-3.1-2-5.5-4.7-8-7.2c-1.9-1.8-3.2-4-4.6-6.2c-0.9-1.4-1.7-2.8-2.3-4.3
		c-0.7-1.6-1.6-3.1-2-4.8c-0.7-0.5,0.2-1.5-0.6-2c0.1-0.7-0.2-1.5,0.3-2.2c0.2-0.3,0-0.9,0-1.4c-0.4-0.6-0.9-1.2-1.4-1.9
		C68,53.5,67.2,50.1,67.5,46.7 M84.4,33.9c0.1-0.7,0.3-1.3,0.3-1.6c0.7-0.7,1.1-1.1,1.6-1.6c0.2,0.3,0.4,0.7,0.6,1.1
		c0.3,0.3,0.2,0.8-0.1,1.4c-0.4,1-0.7,2-1.1,3c-0.3,0.8-0.6,1.7-1.7,1.9c0.1-0.7,0.2-1.4,0.3-2C84.5,35.4,84.4,34.6,84.4,33.9
		 M93.4,38.1c-0.8,1-1.4,1.8-2.1,2.7h-7.1c0.9-0.6,1.3-1.5,2.1-1.7c0.6-1.1,1.2-2.1,1.8-3.2c1.4,0.4,2.3,1.5,3.8,2.3L93.4,38.1
		L93.4,38.1z M81.7,21.9c0.3-1.1,0.5-1.9,0.7-2.7c-1.5-0.6-2.5,0.4-3.6,0.7c-0.9,0.2-1.7,0.9-2.5,1c-1.2,0.2-2.5,0.8-3.9,0.4
		c0.2-0.5,0.4-0.9,0.6-1.3c1.4-0.2,2.8-0.5,4-1.3c0.7-0.4,1.3-0.5,2.1-0.6c0.6,0,1.2-0.3,1.9-0.4c0.1-0.7,0.3-1.5,0.5-2.3
		c0.1-0.2,0.2-0.6,0.4-0.7c1.3-1,1.3-2.5,1.9-3.8c0.3-0.7,0.1-1.7-0.6-2.3c-0.7-0.3-1.4-0.6-2.1-0.9c0.6-0.8,0.2-1.6,0.4-2.5
		c1.1,0,2.1,0.5,3,1.1c0.4-0.2,0.8-0.4,1.4-0.7c0.2,0.4,0.5,0.8,0.8,1.2v3.3c0,0.6,0,1.3,0,1.9c-0.1,0.5-0.1,1.1-0.4,1.6
		C85.9,14.3,86,15,86,15.8c0,0.4,0.1,0.8-0.2,1.1c-0.2,0.2-0.2,0.6-0.1,0.8c0.2,1.3,0.3,2.6,0.7,3.7c0.5,1.2,1,2.4,2.1,3.4
		c1,0.9,2.1,1.8,2.8,3.1c0.4,0.8,0.9,1.6,1.3,2.2c0.3,1.5,0.6,2.8,0.8,3.9c1.1,0.8,2,1.5,2.9,2.2v3c-0.5,0.5-0.9,0.9-1.5,1.5
		c-0.2-0.4-0.2-0.6-0.3-0.8c0.3-0.2,0.6-0.4,0.8-0.5v-1.3c-0.9-2.5-3-2.8-4.8-3.5c-0.2-0.5-0.5-1-0.8-1.7c0,0,0-0.2,0-0.4
		c0.2-1.8-0.8-3.2-1.6-4.6s-2.2-2.1-3.3-3.2C83.5,23.8,82.5,22.8,81.7,21.9 M77.1,15.1c-0.3-0.2-0.7-0.3-1.1-0.4
		c-0.3-0.9-1.1-1.4-2-1.9c0.3-0.3,0.4-0.5,0.6-0.7c1.2,0.7,2.4,1.4,3.8,2.1v0.5v0.6C77.8,15.6,77.5,15.5,77.1,15.1 M121,83.9
		c0.1-0.1,0.2,0,0.5-0.1c-0.4-1.2,0.3-2,0.7-3h1.3c0.4,0.6,0.8,1.4,1.5,2c0.6,0.6,1.4,1,1.4,1.8c0.7,0.6,1.2,1.1,1.8,1.5
		c-0.1,1.2-1.1,1.5-1.8,2c-0.8,0.5-1.6,0.3-2.6,0.1s-1.9-0.6-2.8-0.8c-1-0.1-1.6-1-2.5-0.8C119.3,85.8,120.1,84.8,121,83.9
		 M117.3,79.6c-0.2-0.8-0.4-1.7,0.1-2.5c0.1-0.2,0.1-0.4,0.1-0.9c0.5-0.4,1.1-1,1.7-1.4c1.9-0.1,1.9-0.1,3.6,1.6
		c-0.1,0.6-0.3,1.4-0.5,2.2c-0.5,0.3-1.1,0.7-1.6,1.2c-0.9,0.7-1.2,1.7-1.1,2.8c-0.8,0.8-1.6,1.6-2.4,2.4c-0.8,0.9-1.8,1.1-2.9,0.7
		c0.3,0,0.5-0.1,1-0.1c0.4-0.5,1.1-1,1.5-1.7C117.7,82.6,117.8,81.1,117.3,79.6 M110.5,60.3c1.4,0,2.8,0.1,4.2,0
		c1.2-0.1,2.5-0.3,3.8-0.4c0.1-0.1,0.3-0.3,0.5-0.5c-0.1-0.4-0.3-0.8-0.5-1.2h-1.8c0.5-2,0.5-4.1,1.6-5.9c0.5-0.9,0.9-1.8,1.4-2.8
		c-0.4-0.5-0.8-0.9-1.2-1.3v-2.1c-0.3-0.2-0.6-0.3-1.1-0.6h-2.2c0.2-0.4,0.4-0.7,0.5-1h1.7c0.5-0.3,0.8-0.5,1.3-0.7
		c0.1,0.2,0.3,0.4,0.4,0.6h2.3c-0.2-0.3-0.3-0.6-0.4-0.8s-0.3-0.4-0.5-0.7c0.7-0.2,1.4-0.4,2.1-0.6c0.8,1.4,1.5,2.8,2.2,4.2
		c0.1,0.2,0,0.5,0,0.7c0,1.4,0.2,2.7,0,4c-0.4,2-0.1,4.1-0.4,6c-0.3,1.6-0.1,3.1-0.3,4.6c-0.2,1.6,0.5,3,0.8,4.5
		c0.3,1.4,1.1,2.7,1.9,4c1.2,1.9,2.5,3.8,3.3,5.8c0.4,0.9,0.6,1.8,0.9,2.6c-0.7,0.5-1.3,1-1.9,1.4c-0.2,1.3,0.6,2.3,0.8,3.4
		c0.2,1,0.7,2,0.9,3c0.2,0.9-0.2,1.8-0.4,2.7c-0.4,0.2-0.9,0.5-1.5,0.9c-0.1-0.4-0.1-0.6-0.2-0.7c0.6-0.6,1.1-1.1,1.4-1.4
		c-0.1-1.8-0.4-3.3-1.8-4.1c-1.2-0.7-1.7-1.8-2.5-2.7c-0.8-1-1.4-2.2-1.5-3.6c0-0.3-0.3-0.6-0.4-0.9c0.3-0.5,0.5-0.9,0.8-1.5
		c-0.2-0.6,0.4-1.5-0.4-2.1c-0.5,0.3-0.9,0.5-1.4,0.7c-0.3-0.4-0.5-0.6-0.6-0.8c-1-2.3-2.1-4.7-2.8-7.1c-0.2-0.7-0.7-1.4-1-2.1
		c0.3-1.1,1.7-1.1,2.1-2.1c0-0.2,0-0.4,0-0.8c-1,0.1-2,0.3-3,0.4c-1,0.1-2,0.1-3,0s-2.1,0.3-2.9-0.2c-1,0.1-2,0.2-2.8,0.3
		c-0.5-0.7-0.5-0.7-0.4-1.4C109.2,60.1,109.9,60.2,110.5,60.3 M109.8,56.3c0.2-0.4,0.5-0.8,0.7-1.2c0.2,0,0.4-0.1,0.5,0
		c0.4,0.2,0.9,0.4,1.3,0.7c0.8,0.6,1.5,1.3,2.3,2v0.6c-0.1,0.1-0.2,0.2-0.3,0.2c-1.1,0.1-2.3-0.2-3.4,0.3c-0.4,0.2-0.9,0.1-1.2-0.5
		L109.8,56.3L109.8,56.3z M110.9,52.5c0.3,0.1,0.5,0.2,0.8,0.3c0.4,0.1,0.7,0.3,1.1,0.4c1.3,0,2,0.8,2.4,2.1c-0.4,0-0.8,0.1-1.3,0.1
		c-1-0.9-2-1.7-3.1-2.6C110.9,52.7,110.9,52.6,110.9,52.5 M42.1,77.2c-0.2,0.1-0.4,0.4-0.6,0.3c-0.9-0.1-1.8,0.3-2.7,0.3
		c-0.4,0-0.9-0.3-1.3-0.6c-0.4-0.3-0.7-0.6-0.8-0.8c-0.4-1.4-0.7-2.6-1-3.8c-0.1-0.3-0.2-0.5-0.2-0.8c0.1-0.5,0.2-1,0.3-1.4
		c0.1-0.5-0.2-1.1,0.3-1.5c-0.2-1.6,1.1-3.2,0.1-4.8c0-2.6-1.5-4.5-2.5-6.7l0,0c0.7-0.2,1.3,0.1,1.5,0.8c0.5-0.2,0.9-0.3,1.5-0.5
		c0.3,0.6,0.7,1.2,1.1,1.8h0.7c0.5-0.5,0-0.9-0.1-1.4c0.2,0,0.4-0.1,0.5,0c0.2,0.1,0.5,0.4,0.5,0.5c-0.2,1.2,0.7,1.8,1.1,2.7
		c0.1,0.2,0.3,0.5,0.4,0.6c-0.4,1.5-0.9,3-1.1,4.4c-0.2,1.6,0,3.2-0.3,4.8c-0.3,1.5-0.1,3.1-0.1,4.8h1.7c0.6,0.4,1,0.7,1.4,1
		C42.3,77.1,42.2,77.1,42.1,77.2 M33.3,57.2l0.1-0.1c0.1,0.1,0.2,0.2,0.2,0.3l0,0C33.5,57.4,33.4,57.3,33.3,57.2 M32.9,56.3
		c-0.3-0.1-0.6-0.2-0.9-0.4c-0.2-0.4-0.4-0.8-0.5-1.1c0.2-0.1,0.2-0.2,0.3-0.2c3.1-0.1,3.3-0.1,4.3,0.7c-0.4,0-0.9-0.1-1.3-0.2
		c0,0.1-0.1,0.3-0.2,0.6c-0.5-0.1-1-0.3-1.6-0.4C33,55.7,32.9,56,32.9,56.3 M36.3,55.4C36.3,55.5,36.3,55.5,36.3,55.4L36.3,55.4
		C36.2,55.4,36.2,55.4,36.3,55.4 M36.5,55.7L36.5,55.7c0.1,0,0.2,0.1,0.3,0.2L36.7,56C36.6,55.9,36.5,55.8,36.5,55.7L36.5,55.7
		 M143.8,62.7c0.9-2,2.1-3.7,3.7-5.1c0.1-1.3-0.9-1.9-1.7-2.6c-0.5-0.2-1.1-0.5-1.7-0.8c-1-0.2-2.1-0.3-3.2-0.5
		c-0.2,0.3-0.4,0.6-0.6,0.8H139c-0.7,0.4-1.2,0.7-1.7,1c-1,0.6-2.2,1.1-2.5,2.4c-0.2,0.9-0.7,1.5-0.9,2.3c-0.2,0.5-0.4,0.9-0.6,1.4
		c-0.4,1.4-0.3,2.7-0.3,4.1c0,0.7-0.2,1.5,0.1,2.1c0.4,1.1,0.4,2.3,0.6,3.4c0.2,0.9,0.6,1.9,0.4,2.8c0.8,0.8,0.2,1.5-0.1,2.3h-1.2
		c-0.1-0.2-0.2-0.4-0.3-0.6c-1.2-2.4-2.7-4.6-3.9-7c-0.8-1.6-1.3-3.3-1.3-5.1c0-0.7,0.2-1.5-0.1-2.1c-0.4-0.7-0.3-1.3-0.3-2
		c0-0.5,0.3-1.1,0.3-1.6c0.1-0.6,0-1.2,0-1.8c0-0.2,0.2-0.4,0.2-0.6c0.1-0.8,0.8-1.6,0.1-2.5c-0.3-0.5-0.5-1.2-0.4-1.8
		c0.4-2.4,0.5-2.9-0.1-4.8c-0.3-0.9-0.6-2-1.5-2.3c-0.9-0.4-0.9-1.1-1.3-1.6c0.3-1,0.5-1.8,0.8-2.7c-0.2-0.4-0.4-0.8-0.7-1.3
		c-0.6,0.3-1.1,0.6-1.6,0.9c-0.1-0.3-0.3-0.5-0.3-0.7h-1.3c-0.3,0.5-0.5,0.9-0.7,1.3c-0.5,1.1-1.5,1.8-2.5,2.1
		c-0.9,0.3-1.7,0.7-2.9,1.1c-0.7,0.1-1.7-0.2-2.7,0.5c-0.1,0.6-0.3,1.2-0.4,1.8c0.1,0,0.2-0.1,0.3-0.1c0.2,0.4,0.4,0.7,0.6,1
		c0.8,0,1.3,0,1.9,0s1.2,0,2.1,0.1c-0.8,1.1-1.8,1.4-2.9,1.5c0.6,0.5,1.1,0.9,1.6,1.3c-0.1,0.1-0.2,0.2-0.2,0.3h1.6
		c0.3,1.5-0.7,2.3-1.7,3.2c-0.4-0.1-0.8-0.1-1.1-0.3c-1.2-0.7-2.3-1.4-3.6-2.1v-8.9c-1.1,0-2.1,0-3.1,0c-3.4-0.1-6.8,0.4-10.2-0.4
		c0-0.7-0.1-1.4,0.3-2c0.5-0.9,0.4-1.9,0.4-2.8c-0.1-0.7-0.3-1.4-1-1.8c-0.4-0.2-0.7-0.6-1.3-1h3c0.8-0.4,1.4-0.7,2-1
		c0.4-1.1,0.8-2.3,0.8-3.5c0-0.8,0-1.5,0-2.3c0-0.4-0.1-0.7-0.3-1.1c-0.6-1.1-1.2-2.2-1.6-3.4c-0.4-1.2-0.7-2.5-1.3-3.6
		c0.4-1.4,0.8-2.6,1.1-3.6c-0.6-0.6-1-1-1.6-1.5c-0.8,0.2-1.4,0.6-2,1.6c-1.4,2.4-1.3,4.8-0.5,7.1c0.6,2,1.5,4,2.4,5.9
		c0.3,0.6,0.3,1,0.3,1.3c-0.4,0.5-0.7,0.7-0.9,1h-2.3c-0.4-1.9-0.8-3.8-2.4-4.9c-0.3-1-2.4-2.8-3.1-2.8c-0.2-0.5-0.5-0.9-0.6-1.4
		s-0.1-1.1-0.2-1.7c0-0.1,0-0.2-0.1-0.3c-0.4-1.6-0.4-2.6,0-4.2c0.3-1.4,0.6-2.7,0.7-4.1c0.1-1.2,0.1-2.3,0-3.5s-0.4-2.4-1.4-3.3
		c-0.6-0.6-1.3-1.1-2-1.6h-1.4c-0.4,0.3-0.9,0.7-1.4,1s-1,0.5-1.8,0.8h-1.2c-0.8,1.7-0.2,2.5,0.4,4.8c1,0.1,1,1.1,1.3,1.7
		c-0.4,0.9-0.9,1.7-1.3,2.6h-1.5c-0.7-0.9-1.7-0.8-2.6-1.2c-0.5-0.9-1-1.8-1.4-2.6h-1.3c-1.2,1.7-1.2,1.7-1.1,3.5
		c0.2,0.4,0.3,0.7,0.5,1c0.3,0.3,0.6,0.4,1,0.6c1.2,0.9,2.4,1.7,3.6,2.7c-1,0.6-1.8,1.1-2.7,1.7h-1.4c-0.7,0.4-1.3,0.7-1.8,0.9
		c-0.4,0.7-0.7,1.3-1,1.9c0.3,0.5,0.6,0.9,0.8,1.3c1.5,0.2,2.8-0.1,4.2-0.5c1.2-0.3,2.5-0.8,3.7-0.5c2.4,3.7,2.6,3.9,5,5.8
		c0,0.9,0,1.9-1.2,2.3c-0.1,0-0.2,0.4-0.3,0.6c-0.2,0.4-0.4,0.8-0.7,1.2c0.1,0.9-0.2,1.9,0.3,2.9c0.2,0.3,0.1,0.9,0,1.2
		c-0.4,1-0.9,2-1.3,3c-1.7,0-3,0.7-3.7,2.2c-1.6,0-3.2,0-4.8,0c-2.5,0.1-5-0.3-7.4,0.5c-0.8,2.6-0.2,5.3-0.5,7.9
		c-2,0.7-3.3,2.5-5.4,2.9c-0.6-0.8-1.1-1.6-1.2-2.6c0.8-1,1.9-1.3,2.6-1.3c0.6-0.4,1-0.7,1.4-1c-0.2-0.4-0.4-0.8-0.6-1.2h-3.3
		c1.2-0.8,2.5-0.9,3.9-1.1c0.2-0.5,0.4-1,0.6-1.5c-0.1-0.4-0.3-0.9-0.4-1.3c-0.6,0-1.2,0.1-1.8,0c-0.8-0.1-1.7-0.1-2.2-0.5
		c-0.9-0.7-1.9-0.5-3-1.2c-0.5-0.6-1.1-1.4-1.8-2.2c-1.1,0.3-2,0.5-3,0.7c0,0.5-0.1,1,0.1,1.2c0.6,0.9,0.2,1.6-0.1,2.4
		c-0.4,0.8-0.7,1.6-1.1,2.4c-0.7,1.6-0.7,3.3-1.3,4.9c-0.1,0.3-0.1,0.7,0,0.8c0.5,0.5,0.3,1.1,0.3,1.6c0,2.2-0.1,4.5,0,6.7
		c0.1,2.1-0.3,4.1-0.8,6c-0.3,1.1-0.5,2.3-1.4,3.1c-0.8,0.8-1.2,1.7-1.8,2.6c-0.5,0.9-1,1.8-1.4,2.8c-0.4,1.1-0.8,1.2-1.8,0.3
		c0.2-0.7,0-1.5,0.2-2.3c0.3-1.1,0.6-2.4,0.8-3.5c0.3-1.9,0.3-3.8,0.4-5.7c0-0.7,0-1.4,0-2c-0.5-1-1.2-1.8-1.4-2.7
		c-0.3-1.5-1.1-2.5-2.2-3.5c-1.1-1-2.4-1.4-3.8-1.6c-0.2-0.2-0.4-0.4-0.6-0.6c-1.2,0.1-2.3,0.1-3.4,0.4c-1,0.3-2.1,0.5-2.7,1.5
		c-0.3,0.4-0.5,0.9-0.8,1.4c0.3,0.4,0.5,1.1,0.9,1.3c1.2,0.5,1.7,1.6,2.3,2.6c0.6,1,1.2,2,1.5,3.3c0.1,0.7,0.1,1.5,0.4,2.1
		c0.6,1.6,0.3,3.2,0.2,4.8c-0.1,2.1-0.2,2.3,0.3,4.3c0.2,0.9,0.7,1.7,1,2.6c0.1,0.6,0.5,1.2,1,1.7c0.6,0.6,1.4,0.9,2,1.4
		c0.6,0.5,1.1,0.5,1.7,0.3c1.2-0.4,2.5-0.8,3.6-0.6c0.7,0.4,1.2,0.6,1.8,0.9c-0.1,0.4-0.2,0.9-0.4,1.3c-0.4,1.1-0.9,2.1-1.4,3.1
		c-0.7,1.7-0.6,2.1,0.6,3.6c0,0,0,0.1,0,0.4c-0.1,0.2-0.3,0.5-0.4,0.8c-1.8,0.3-3.4,0-5.1,0.4c-2,0.5-4-0.2-6-0.3
		c-0.7-0.7-1.5-0.2-2.3-0.4c0.2,0.7,0.4,1.2,0.5,1.6c0.8,1.2,2.1,1.6,3.2,2.2c0.5,0.3,0.7,0.7,0.6,1.2c-0.4,0.3-0.7,0.5-1,0.7
		c-0.4,0.2-0.9,0.1-1.3,0.3c-0.9,0.4-1.6,1-1.8,1.8c0.3,0.4,0.5,0.7,0.6,0.9c0.7,0.3,1.4-0.1,1.8,0.4c1.8,0.2,3.5,0.9,5.3,0.8
		c1.9-0.1,3.9,0,5.8,0c0.3,0,0.7,0,1-0.1c0.5-0.1,0.9-0.5,1.3-0.6c0.6-0.1,1.2,0,1.6,0c1.7-1,3.5-1.3,5.2-1.7c0.6-0.2,1.3-0.1,2-0.4
		c0.6-0.2,1.1-0.5,1.8-0.4c0.3,0,0.6-0.1,0.8-0.2c1.1-0.4,2.2-0.7,3.3-0.5c0.8,0.9,0.6,2,0.9,2.9c0.3,1,0.1,2.2,0.1,3.1
		c0.2,0.2,0.3,0.3,0.4,0.4c0.8,1.5,2.2,2,3.8,2.3c0.5,0.1,0.9,0.4,1.6,0.7c0.7,0,1.6,0,2.2,0.7c1.5,0.1,3,0.3,4.5,0.4
		c0.1,0,0.1,0,0.2,0c0.6,0.6,1.4,0.1,2,0.4c0.7,0.4,1.3,0.3,2,0.3c0.3,0,0.7-0.1,0.9,0c0.8,0.6,1.8,0,2.5,0.4
		c0.9,0.5,1.8,0.3,2.7,0.3c2.3,0.1,4.6-0.1,6.9,0s4.6-0.4,6.9-0.4c1.7,0,3.6,0.4,5.2-0.7c0,0,0.1,0,0.2,0c1.6-0.2,3.2-0.3,4.7-0.5
		c1.5-1.2,3.4-1.4,5.1-2.2c-0.2-1.2,0.5-2.4,0.4-3.7s0-2.7,0-3.9c0.2-0.4,0.4-0.7,0.5-1c2.1-0.3,3.9,1,5.8,1.2
		c0.6,0.1,1.2,0.3,1.7,0.5c1,0.5,1.9,0.9,3,0.7c0.4,0.3,0.8,0.6,1.1,0.9c0.7,0.4,1.5,0,2.4,0.4c0.7,0.4,1.8,0.1,2.5,0.8
		c2.1,0,4.2-0.1,6.3,0s4.2-0.3,6.4-0.4c0.7-0.8,1.7-0.6,2.6-0.7v-0.8c-0.3-0.3-0.6-0.6-0.9-0.9c-0.6,0-1.3,0.1-1.9,0
		c-0.7-0.1-1.3-0.3-1.9-0.4c-0.4-0.4-0.9-0.8-1.3-1.2c2-1.2,4-2.3,6-3.5c-0.1-0.6,0.3-1.4-0.4-1.8c-0.5,0.1-1,0.1-1.3,0.4
		c-0.8,0.7-1.7,0.6-2.6,0.6c-1.4,0-2.7,0-4.1,0c-1.4,0-2.7-0.5-4.1-0.4c-0.4,0-0.9-0.3-1.5-0.5c1.2-1.8,0.8-3.8,0.9-5.6
		c-1.4-2.4-1.4-2.4-1.3-3.4c1.2,0,2.3-0.1,3.5,0c1.1,0.1,2.1,0.9,3.3,0.6c0.2-0.2,0.4-0.5,0.7-0.7c1.4-0.8,2-2.1,2.6-3.5
		c0.1-0.3,0.2-0.6,0.4-0.9c0.6-1.2,0.9-2.5,0.6-3.8c-0.2-0.7-0.3-1.4-0.3-2.2c0-1.1,0.3-2.1,0.3-3.2
		C142.6,65.8,143.1,64.3,143.8,62.7"/>
	<path class="st0" d="M106.1,95.4C106.1,95.4,106.2,95.4,106.1,95.4c-0.1-0.1-0.1-0.1-0.2,0C106,95.3,106.1,95.4,106.1,95.4"/>
	<path class="st0" d="M69.9,99c-0.4,0.1-0.7,0.4-0.9,0.7c-0.2,0.4-0.1,1,0.3,1.2c0.1,0.1,0.3,0.1,0.4,0.1c0.3,0,0.5-0.1,0.6-0.3
		c0.1-0.2,0.2-0.6,0-0.9C70.2,99.6,70.1,99.3,69.9,99 M69.7,102.6L69.7,102.6c-0.5,0-0.9-0.1-1.3-0.4c-0.9-0.7-1.3-2-0.8-3.1
		c0.4-1,1.4-1.6,2.6-1.7c0.3,0,0.5,0.1,0.6,0.3c0.3,0.5,0.7,1,1,1.6c0.3,0.8,0.2,1.6-0.2,2.3C71.2,102.2,70.5,102.6,69.7,102.6"/>
	<path class="st0" d="M75.6,103.7L75.6,103.7l-2.7-0.5c-0.2,0-0.4-0.2-0.5-0.3c-0.1-0.2-0.1-0.4-0.1-0.6l0.7-3.1
		c0.1-0.4,0.5-0.7,0.9-0.6s0.7,0.5,0.6,0.9l-0.6,2.3l1.8,0.4c0.4,0.1,0.7,0.5,0.6,0.9C76.3,103.4,76,103.7,75.6,103.7"/>
	<path class="st0" d="M80.3,104.4c-0.4,0-0.7-0.3-0.8-0.7l-0.3-2.9l0,0c-0.1,0.1-0.1,0.3-0.1,0.4l-0.7,2.2c-0.1,0.4-0.5,0.6-0.9,0.5
		s-0.6-0.5-0.5-0.9l0.7-2.2c0.1-0.3,0.2-0.8,0.6-1.2c0.5-0.5,1.3-0.7,1.8-0.3c0.6,0.4,0.7,1.1,0.7,1.4l0.3,2.9
		C81.1,104,80.8,104.4,80.3,104.4L80.3,104.4"/>
	<path class="st0" d="M80.1,103C80,103,80,103,80.1,103l-2.1-0.2c-0.4,0-0.7-0.4-0.7-0.8s0.4-0.7,0.8-0.7l2,0.2
		c0.4,0,0.7,0.4,0.7,0.8C80.8,102.8,80.4,103,80.1,103"/>
	<path class="st0" d="M83.4,104.3c-0.1,0-0.1,0-0.2,0c-0.2-0.1-0.4-0.2-0.5-0.5l-1.3-3.3c-0.2-0.4,0-0.8,0.4-1s0.8,0,1,0.4l0.8,2.1
		c0.4-0.6,0.8-1.2,1-1.9c0.1-0.4,0.6-0.6,1-0.5c0.4,0.1,0.6,0.6,0.5,1c-0.4,1.3-1.2,2.5-2.2,3.4C83.8,104.2,83.6,104.3,83.4,104.3"
		/>
	<path class="st0" d="M89.2,101.3c-0.4,0-0.7-0.3-0.8-0.7c0-0.4,0.3-0.8,0.7-0.8l3.8-0.2c0.4,0,0.8,0.3,0.8,0.7s-0.3,0.8-0.7,0.8
		L89.2,101.3L89.2,101.3"/>
	<path class="st0" d="M91.1,104.7c-0.4,0-0.8-0.3-0.8-0.8v-3.4c0-0.4,0.3-0.8,0.8-0.8c0.4,0,0.8,0.3,0.8,0.8v3.4
		C91.8,104.3,91.5,104.7,91.1,104.7"/>
	<path class="st0" d="M94.8,104.7c-0.4,0-0.7-0.3-0.8-0.7l-0.2-3.5c0-0.4,0.3-0.8,0.7-0.8s0.8,0.3,0.8,0.7l0.2,3.1
		c0,0.1,0,0.2,0,0.2v0.2C95.6,104.3,95.3,104.7,94.8,104.7L94.8,104.7z"/>
	<path class="st0" d="M97.4,104.4c-0.3,0-0.6-0.2-0.7-0.6l-0.1-0.3c0-0.2,0-0.4,0-0.5l-0.1-2.9c0-0.4,0.3-0.8,0.7-0.8
		S98,99.6,98,100l0.1,3.5C98.1,103.9,97.8,104.2,97.4,104.4C97.5,104.4,97.4,104.4,97.4,104.4"/>
	<path class="st0" d="M97.2,102.6L97.2,102.6l-2.5-0.1c-0.4,0-0.8-0.4-0.7-0.8c0-0.4,0.3-0.7,0.8-0.7l0,0l2.5,0.1
		c0.4,0,0.8,0.4,0.7,0.8C97.9,102.3,97.6,102.6,97.2,102.6"/>
	<path class="st0" d="M101.2,100.9c-0.2,0-0.5,0.1-0.6,0.3c-0.3,0.3-0.3,0.8-0.1,1.1c0.1,0.2,0.4,0.4,0.7,0.4s0.6-0.1,0.7-0.3
		c0.2-0.2,0.3-0.6,0.2-0.8c-0.1-0.3-0.3-0.5-0.6-0.6C101.3,100.9,101.3,100.9,101.2,100.9 M101.2,104.2L101.2,104.2L101.2,104.2
		c-0.8,0-1.6-0.5-2-1.1c-0.6-0.9-0.5-2.2,0.3-3c0.4-0.5,1.1-0.7,1.7-0.7c0.2,0,0.4,0,0.5,0.1c0.8,0.2,1.5,0.8,1.7,1.6
		c0.3,0.8,0.1,1.7-0.4,2.3C102.6,103.9,101.9,104.2,101.2,104.2"/>
	<path class="st0" d="M105,103.7c-0.1,0-0.1,0-0.2,0c-0.4-0.1-0.7-0.5-0.6-0.9c0.2-0.9,0.2-1.8-0.1-2.6c-0.1-0.3,0-0.7,0.3-0.9
		s0.7-0.1,0.9,0.1l1.1,1.2l0.1-1.4c0-0.4,0.4-0.7,0.8-0.7s0.7,0.4,0.7,0.8l-0.2,3.1c0,0.3-0.2,0.6-0.5,0.7s-0.6,0-0.8-0.2l-0.7-0.8
		c0,0.3-0.1,0.7-0.2,1C105.6,103.4,105.3,103.7,105,103.7"/>
	<path class="st0" d="M70.5,56c0.5-0.5,1-0.9,1.5-1.4c0.1-0.6,0.2-1.3,0.3-1.6c-0.2-0.5-0.3-0.7-0.5-1.1c-0.5,0.5-0.8,0.8-1.1,1
		c-0.9,0-1.5-0.8-2.4-0.1C69.3,53.8,69.3,55.3,70.5,56"/>
	<path class="st0" d="M70.5,48.2c0.5-0.5,1-0.9,1.5-1.4c0.1-0.6,0.2-1.3,0.3-1.6c-0.2-0.5-0.3-0.7-0.5-1.1c-0.5,0.5-0.8,0.8-1.1,1
		c-0.9,0-1.5-0.8-2.4-0.1C69.3,46,69.3,47.5,70.5,48.2"/>
	<path class="st0" d="M77.4,47.8c0.5-0.5,1-0.9,1.5-1.4c0.1-0.6,0.2-1.3,0.3-1.6c-0.2-0.5-0.3-0.7-0.5-1.1c-0.5,0.5-0.8,0.8-1.1,1
		c-0.9,0-1.5-0.8-2.4-0.1C76.2,45.6,76.2,47.1,77.4,47.8"/>
	<path class="st0" d="M85.5,47.8c0.5-0.5,1-0.9,1.5-1.4c0.1-0.6,0.2-1.3,0.3-1.6c-0.2-0.5-0.3-0.7-0.5-1.1c-0.5,0.5-0.8,0.8-1.1,1
		c-0.9,0-1.5-0.8-2.4-0.1C84.2,45.6,84.2,47.1,85.5,47.8"/>
	<path class="st0" d="M90.2,47.8c0.5-0.5,1-0.9,1.5-1.4c0.1-0.6,0.2-1.3,0.3-1.6c-0.2-0.5-0.3-0.7-0.5-1.1c-0.5,0.5-0.8,0.8-1.1,1
		c-0.9,0-1.5-0.8-2.4-0.1C89,45.6,89,47.1,90.2,47.8"/>
	<path class="st0" d="M98.4,47.8c0.5-0.5,1-0.9,1.5-1.4c0.1-0.6,0.2-1.3,0.3-1.6c-0.2-0.5-0.3-0.7-0.5-1.1c-0.5,0.5-0.8,0.8-1.1,1
		c-0.9,0-1.5-0.8-2.4-0.1C97.1,45.6,97.2,47.1,98.4,47.8"/>
	<path class="st0" d="M105.1,48.4c0.5-0.5,1-0.9,1.5-1.4c0.1-0.6,0.2-1.3,0.3-1.6c-0.2-0.5-0.3-0.7-0.5-1.1c-0.5,0.5-0.8,0.8-1.1,1
		c-0.9,0-1.5-0.8-2.4-0.1C103.9,46.2,103.9,47.8,105.1,48.4"/>
	<path class="st0" d="M105.1,56.3c0.5-0.5,1-0.9,1.5-1.4c0.1-0.6,0.2-1.3,0.3-1.6c-0.2-0.5-0.3-0.7-0.5-1.1c-0.5,0.5-0.8,0.8-1.1,1
		c-0.9,0-1.5-0.8-2.4-0.1C103.9,54,103.9,55.6,105.1,56.3"/>
	<path class="st0" d="M103.6,63.9c0.5-0.5,1-0.9,1.5-1.4c0.1-0.6,0.2-1.3,0.3-1.6c-0.2-0.5-0.3-0.7-0.5-1.1c-0.5,0.5-0.8,0.8-1.1,1
		c-0.9,0-1.5-0.8-2.4-0.1C102.3,61.6,102.4,63.2,103.6,63.9"/>
	<path class="st0" d="M101.2,71c0.5-0.5,1-0.9,1.5-1.4c0.1-0.6,0.2-1.3,0.3-1.6c-0.2-0.5-0.3-0.7-0.5-1.1c-0.5,0.5-0.8,0.8-1.1,1
		c-0.9,0-1.5-0.8-2.4-0.1C99.9,68.8,100,70.4,101.2,71"/>
	<path class="st0" d="M97.7,76.7c0.5-0.5,1-0.9,1.5-1.4c0.1-0.6,0.2-1.3,0.3-1.6c-0.2-0.5-0.3-0.7-0.5-1.1c-0.5,0.5-0.8,0.8-1.1,1
		c-0.9,0-1.5-0.8-2.4-0.1C96.5,74.5,96.5,76,97.7,76.7"/>
	<path class="st0" d="M91.2,83.6c0.5-0.5,1-0.9,1.5-1.4c0.1-0.6,0.2-1.3,0.3-1.6c-0.2-0.5-0.3-0.7-0.5-1.1c-0.5,0.5-0.8,0.8-1.1,1
		c-0.9,0-1.5-0.8-2.4-0.1C89.9,81.4,90,83,91.2,83.6"/>
	<path class="st0" d="M83.8,83.6c0.5-0.5,1-0.9,1.5-1.4c0.1-0.6,0.2-1.3,0.3-1.6c-0.2-0.5-0.3-0.7-0.5-1.1c-0.5,0.5-0.8,0.8-1.1,1
		c-0.9,0-1.5-0.8-2.4-0.1C82.6,81.4,82.6,83,83.8,83.6"/>
	<path class="st0" d="M78.2,77.3c0.5-0.5,1-0.9,1.5-1.4c0.1-0.6,0.2-1.3,0.3-1.6c-0.2-0.5-0.3-0.7-0.5-1.1c-0.5,0.5-0.8,0.8-1.1,1
		c-0.9,0-1.5-0.8-2.4-0.1C76.9,75.1,77,76.7,78.2,77.3"/>
	<path class="st0" d="M74.9,71.7c0.5-0.5,1-0.9,1.5-1.4c0.1-0.6,0.2-1.3,0.3-1.6c-0.2-0.5-0.3-0.7-0.5-1.1c-0.5,0.5-0.8,0.8-1.1,1
		c-0.9,0-1.5-0.8-2.4-0.1C73.6,69.5,73.7,71,74.9,71.7"/>
	<path class="st0" d="M72.1,65c0.5-0.5,1-0.9,1.5-1.4c0.1-0.6,0.2-1.3,0.3-1.6c-0.2-0.5-0.3-0.7-0.5-1.1c-0.5,0.5-0.8,0.8-1.1,1
		c-0.9,0-1.5-0.8-2.4-0.1C70.8,62.7,70.9,64.3,72.1,65"/>
	<g>
		<path class="st0" d="M88.3,64.4c0.3,0.1,0.1,0.2,0.3,0s0.4-0.5,0.6-0.7c0.3-0.4,0.8-0.9,0.8-1.5c0-0.1,0-0.1,0-0.2
			c-0.3-1.3-1.7-2.9-2.7-3.4c-0.3-0.1-0.1-0.2-0.3,0s-0.4,0.5-0.6,0.7c-0.3,0.3-0.9,1-0.8,1.5C85.8,62.1,87.2,63.8,88.3,64.4z"/>
		<path class="st0" d="M101,48.2c-4,0-8,0-12,0c-4.6,0-9.2,0-13.7,0c-0.4,0-0.8-0.1-1.3-0.2c-0.2,0.2-0.5,0.4-0.7,0.6
			c-0.2,1.1,0.1,2,0.2,3c0.1,1.6,0,3.1,0.3,4.5C74,57,74,58,74.2,58.9c0.3,1.2,0.6,2.3,1,3.5c0.7,2.3,1.9,4.3,2.8,6.4
			c1.2,2.6,2.8,4.9,4.7,7c1.3,1.4,2.7,2.7,4.1,4.1h1.6c1.1-0.9,2.1-1.6,2.9-2.4c2.7-2.6,5.2-5.2,6.7-8.7c0.7-1.5,1.5-3,2.1-4.6
			c0.6-1.7,0.9-3.4,1.3-5.1c0.2-0.7,0.1-1.5,0.3-2.3c0.2-0.7,0.2-1.5,0.3-2.3c0.3-1.9,0.4-3.9,0.5-5.8C102.1,48,101.5,48.2,101,48.2
			z M93.1,69.2c-0.2,0.6-0.8,1.1-1.4,1.4c-1.2,0.6-2.7,0.5-4,0.3c-1.5-0.2-3.3-0.7-4.7-0.1c-0.5,0.2-0.8-0.1-0.6-0.6
			c0.2-0.6,0.8-1.1,1.4-1.4c1.2-0.6,2.7-0.5,4-0.3c1.5,0.2,3.3,0.7,4.7,0.1C93,68.3,93.3,68.7,93.1,69.2z M83.5,62.1
			c0.1-1.2,1.1-2.4,1.8-3.3c0.8-0.9,1.8-2,3-2.4c0.9-0.3,1.8,0.7,2.3,1.3c0.6,0.8,1.5,1.8,1.6,2.9c0.1,0.1,0.1,0.1,0.1,0.2
			c-0.1,1.2-1.1,2.4-1.8,3.3c-0.8,0.9-1.8,2-3,2.4c-1,0.3-2-0.8-2.5-1.5C84.3,64.2,83.4,63.1,83.5,62.1z M94.8,52.9
			c-1.3,1.8-3.5,2.7-5.7,2.2c-1.3-0.3-2.4-0.8-3.7-1.2c-0.8-0.2-2.7-0.8-3.4,0.1c-0.3,0.3-0.9,1-1.5,0.9c-0.6-0.1,0.1-1,0.2-1.2
			c1.3-1.8,3.5-2.7,5.7-2.2c1.3,0.3,2.4,0.8,3.7,1.2c0.8,0.2,2.7,0.8,3.4-0.1c0.3-0.4,1-1.1,1.5-0.9C95.6,51.8,94.9,52.7,94.8,52.9z
			"/>
	</g>
</g>
<g>
	<g>
		<path class="st1" d="M180.7,37.9c4.9,0,7.9,3.5,7.9,7.6c0,4-3,7.6-8,7.6c-4.9,0-7.8-3.6-7.8-7.6C172.8,41.4,175.9,37.9,180.7,37.9
			z M180.7,51.1c3.3,0,5.8-2.4,5.8-5.6c0-3.2-2.5-5.6-5.8-5.6s-5.8,2.4-5.8,5.6C175,48.7,177.4,51.1,180.7,51.1z"/>
		<path class="st1" d="M193.4,51h6.7v1.9h-8.8V38.1h2.1V51L193.4,51z"/>
		<path class="st1" d="M215.5,52.9h-2.2l-1.9-4.4h-6.3l-1.9,4.4H201l6.4-14.9h1.5L215.5,52.9z M205.9,46.6h4.6l-2.4-5.3L205.9,46.6z
			"/>
		<path class="st1" d="M220.9,53h-0.4l-6.4-14.9h2.1l4.4,10.4l4.4-10.4h2.1L220.9,53z"/>
		<path class="st1" d="M245.8,40h-5.1v12.9h-2.1V40h-5.2v-1.9h12.3V40H245.8z"/>
		<path class="st1" d="M260.2,52.9h-2.1v-6.5h-8.3v6.5h-2.1V38.1h2.1v6.5h8.3v-6.5h2.1V52.9L260.2,52.9z"/>
		<path class="st1" d="M270.7,37.9c4.9,0,7.9,3.5,7.9,7.6c0,4-3,7.6-8,7.6c-4.9,0-7.8-3.6-7.8-7.6C262.8,41.4,265.9,37.9,270.7,37.9
			z M270.7,51.1c3.3,0,5.8-2.4,5.8-5.6c0-3.2-2.5-5.6-5.8-5.6c-3.3,0-5.8,2.4-5.8,5.6C265,48.7,267.4,51.1,270.7,51.1z"/>
		<path class="st1" d="M294.9,52.9h-1.8l-9.9-11.4v11.4h-2V38.1h1.7l10,11.5V38.1h2L294.9,52.9L294.9,52.9z"/>
		<path class="st1" d="M305.5,41.3c-1.3-1.2-2.5-1.6-3.4-1.6c-1.3,0-2.3,0.8-2.3,1.7c0,2.9,6.4,2.8,6.4,7.5c0,2.3-1.7,4.1-4.1,4.1
			c-1.6,0-2.9-0.5-4.1-1.4V49c1,1.4,2.5,2.2,3.9,2.2c1.6,0,2.4-1.1,2.4-1.9c0-3.1-6.4-3.4-6.4-7.5c0-2.4,1.8-4,4.5-4
			c1.1,0,2.2,0.4,3.3,1.1L305.5,41.3L305.5,41.3z"/>
	</g>
	<g>
		<path class="st1" d="M187.2,78.7h-13.4V61.1h4.4v14.4h9V78.7L187.2,78.7z"/>
		<path class="st1" d="M202.5,78.7h-12.9V61.1h12.8v3.2H194V68h8v3.2h-8v4.3h8.6v3.2H202.5z"/>
		<path class="st1" d="M222.4,66.1c-2.2-1.1-4.4-1.7-6.6-1.7c-4.8,0-6.4,2.9-6.4,5.6c0,3.2,2.5,5.2,6.1,5.2c1,0,1.6-0.1,2.9-0.6
			v-2.1h-2.5v-3.2h7v7.2c-1.3,1.4-4.6,2.4-7.4,2.4c-6.1,0-10.5-3.8-10.5-9c0-5.4,4.3-9.1,10.6-9.1c2.6,0,5.2,0.6,7,1.4L222.4,66.1
			L222.4,66.1z"/>
		<path class="st1" d="M244.4,78.7h-4.7l-1.4-3.5h-7.8l-1.3,3.5h-4.6l7.1-17.6h5.1L244.4,78.7z M234.2,65.3l-2.5,6.8h5.4L234.2,65.3
			z"/>
		<path class="st1" d="M259.7,64.3h-6.4v14.4H249V64.3h-6.4v-3.2h17.1V64.3L259.7,64.3z"/>
	</g>
	<line class="st2" x1="158.3" y1="19.4" x2="158.3" y2="97.9"/>
</g>
</svg>
