<?xml version="1.0" encoding="UTF-8" standalone="no"?>
<!-- Created with Inkscape (http://www.inkscape.org/) -->

<svg
   width="23.814434mm"
   height="11.785166mm"
   viewBox="0 0 23.814434 11.785166"
   version="1.1"
   id="svg5"
   inkscape:version="1.1 (c68e22c387, 2021-05-23)"
   sodipodi:docname="opsahlgruppen.svg"
   xmlns:inkscape="http://www.inkscape.org/namespaces/inkscape"
   xmlns:sodipodi="http://sodipodi.sourceforge.net/DTD/sodipodi-0.dtd"
   xmlns="http://www.w3.org/2000/svg"
   xmlns:svg="http://www.w3.org/2000/svg">
  <sodipodi:namedview
     id="namedview7"
     pagecolor="#ffffff"
     bordercolor="#666666"
     borderopacity="1.0"
     inkscape:pageshadow="2"
     inkscape:pageopacity="0.0"
     inkscape:pagecheckerboard="0"
     inkscape:document-units="mm"
     showgrid="false"
     inkscape:zoom="4.3994184"
     inkscape:cx="49.779307"
     inkscape:cy="66.940667"
     inkscape:window-width="1277"
     inkscape:window-height="1081"
     inkscape:window-x="651"
     inkscape:window-y="329"
     inkscape:window-maximized="0"
     inkscape:current-layer="layer1"
     fit-margin-top="0"
     fit-margin-left="0"
     fit-margin-right="0"
     fit-margin-bottom="0" />
  <defs
     id="defs2" />
  <g
     inkscape:label="Lag 1"
     inkscape:groupmode="layer"
     id="layer1"
     transform="translate(-105.97422,-80.458763)">
    <rect
       style="fill:#9a6259;fill-opacity:1;stroke:none;stroke-width:0.111603"
       id="rect893"
       width="23.814434"
       height="11.785166"
       x="105.97422"
       y="80.458763" />
    <g
       style="fill:none"
       id="g869"
       transform="matrix(0.26458333,0,0,0.26458333,108.60639,82.326931)">
      <path
         fill-rule="evenodd"
         clip-rule="evenodd"
         d="m 3.00427,9.05578 c 0,0.59509 0.08978,1.13912 0.26934,1.63192 0.17968,0.4941 0.43696,0.9225 0.77282,1.2851 0.33585,0.3627 0.73895,0.645 1.20773,0.8483 0.46949,0.2008 0.99346,0.3018 1.57322,0.3018 0.57904,0 1.10301,-0.101 1.57251,-0.3018 0.46878,-0.2033 0.87115,-0.4856 1.20761,-0.8483 0.33585,-0.3626 0.5933,-0.791 0.7729,-1.2851 C 10.56,10.1949 10.6498,9.65087 10.6498,9.05578 10.6498,8.47285 10.56,7.9313 10.3804,7.43113 10.2008,6.93217 9.94335,6.50137 9.6075,6.1375 9.27104,5.77484 8.86867,5.4925 8.39989,5.29049 7.93039,5.08847 7.40642,4.98746 6.82738,4.98746 6.24762,4.98746 5.72365,5.08847 5.25416,5.29049 4.78538,5.4925 4.38228,5.77484 4.04643,6.1375 3.71057,6.50137 3.45329,6.93217 3.27361,7.43113 3.09405,7.9313 3.00427,8.47285 3.00427,9.05578 Z m -2.814817,0 c 0,-1.0113 0.164734,-1.92768 0.494926,-2.74913 C 1.01457,5.48642 1.47491,4.78788 2.066,4.21104 2.65637,3.6342 3.35712,3.19123 4.16814,2.88212 4.97916,2.57179 5.86501,2.41724 6.82738,2.41724 c 0.96093,0 1.84751,0.15455 2.65853,0.46488 0.81029,0.30911 1.51179,0.75208 2.10209,1.32892 0.5911,0.57684 1.0515,1.27538 1.3817,2.09561 0.3302,0.82145 0.4956,1.73783 0.4956,2.74913 0,1.01132 -0.1654,1.92642 -0.4956,2.74792 -0.3302,0.8202 -0.7906,1.5188 -1.3817,2.0956 -0.5903,0.5768 -1.2918,1.021 -2.10209,1.3301 -0.81102,0.3091 -1.6976,0.4637 -2.65853,0.4637 -0.96237,0 -1.84822,-0.1546 -2.65924,-0.4637 C 3.35712,14.9203 2.65637,14.4761 2.066,13.8993 1.47491,13.3225 1.01457,12.6239 0.684379,11.8037 0.354187,10.9822 0.189453,10.0671 0.189453,9.05578 Z"
         fill="#ffffff"
         id="path824" />
      <path
         fill-rule="evenodd"
         clip-rule="evenodd"
         d="m 18.086,8.219 h 1.7935 c 0.2415,0 0.4735,-0.02418 0.6983,-0.07134 0.2236,-0.04715 0.4256,-0.12695 0.6038,-0.2394 0.1781,-0.11245 0.3216,-0.266 0.4304,-0.46067 0.11,-0.19466 0.1638,-0.44011 0.1638,-0.73634 0,-0.318 -0.0717,-0.57554 -0.2152,-0.7702 C 21.4159,5.74638 21.233,5.59524 21.0082,5.48884 20.7846,5.38244 20.5347,5.31473 20.2585,5.2845 19.9835,5.25548 19.7181,5.23977 19.4658,5.23977 H 18.086 Z M 15.3965,2.90015 h 4.5344 c 0.6325,0 1.2304,0.05924 1.7935,0.17773 0.5632,0.1185 1.0546,0.32163 1.4743,0.61181 0.4196,0.28898 0.752,0.67952 0.9995,1.16921 0.2475,0.49089 0.3707,1.10875 0.3707,1.85235 0,0.73392 -0.1148,1.34815 -0.3455,1.84388 -0.2296,0.49695 -0.5453,0.89232 -0.947,1.18855 -0.403,0.29502 -0.88,0.50542 -1.4312,0.62872 -0.5524,0.1246 -1.1503,0.1862 -1.7935,0.1862 H 18.086 v 4.8933 h -2.6895 z"
         fill="#ffffff"
         id="path826" />
      <path
         fill-rule="evenodd"
         clip-rule="evenodd"
         d="m 48.4653,2.90015 h 2.6944 v 4.68044 h 5.2319 V 2.90015 H 59.086 V 15.4519 h -2.6944 v -5.4241 h -5.2319 v 5.4241 h -2.6944 z"
         fill="#ffffff"
         id="path828" />
      <path
         fill-rule="evenodd"
         clip-rule="evenodd"
         d="m 61.9824,2.90015 h 2.7083 v 9.99925 h 5.0159 v 2.5525 h -7.7242 z"
         fill="#ffffff"
         id="path830" />
      <path
         fill-rule="evenodd"
         clip-rule="evenodd"
         d="m 37.5792,15.4032 1.8161,-4.9718 1.5041,-3.91772 1.1933,3.06761 1.3573,3.44771 0.9687,2.4228 h 3.0811 L 40.9965,0.244873 39.8505,2.84493 35.9136,12.1085"
         fill="#ffffff"
         id="path832" />
      <path
         fill-rule="evenodd"
         clip-rule="evenodd"
         d="M 32.5779,5.82595 C 32.3561,5.53997 32.0555,5.32943 31.6773,5.19191 31.2991,5.05561 30.9403,4.98746 30.6021,4.98746 c -0.1975,0 -0.4012,0.02313 -0.6109,0.07059 -0.2097,0.04868 -0.4085,0.12169 -0.5951,0.2227 -0.1867,0.10223 -0.3382,0.23609 -0.4546,0.4016 -0.1164,0.16673 -0.1745,0.36874 -0.1745,0.60727 0,0.38091 0.1393,0.67176 0.4194,0.87378 0.28,0.20323 0.6327,0.37482 1.0569,0.51842 0.4255,0.14239 0.8837,0.28477 1.3722,0.42837 0.4909,0.14239 0.9467,0.34441 1.3733,0.60605 0.4243,0.26165 0.777,0.61214 1.057,1.05268 0.28,0.44058 0.4194,1.02838 0.4194,1.76698 0,0.701 -0.1285,1.3144 -0.3842,1.8377 -0.257,0.5233 -0.6037,0.9577 -1.04,1.3033 -0.4376,0.3444 -0.9443,0.6 -1.5213,0.7667 -0.577,0.1667 -1.1855,0.2495 -1.8267,0.2495 -0.8036,0 -1.5491,-0.1253 -2.2376,-0.3748 -0.6873,-0.2495 -1.3273,-0.6548 -1.9212,-1.2133 l 1.9394,-2.1772 c 0.28,0.3809 0.6315,0.6754 1.0582,0.8835 0.4242,0.2081 0.8643,0.3116 1.3188,0.3116 0.2206,0 0.4461,-0.0256 0.6727,-0.0791 0.2279,-0.0536 0.4316,-0.1339 0.6122,-0.241 0.1806,-0.1071 0.326,-0.2446 0.4376,-0.4101 0.109,-0.1667 0.1648,-0.3639 0.1648,-0.589 0,-0.3809 -0.1418,-0.6815 -0.4279,-0.9018 -0.2848,-0.219 -0.6436,-0.4065 -1.0751,-0.561 C 29.8045,10.1851 29.3379,10.0306 28.8373,9.87601 28.3354,9.72146 27.87,9.51335 27.4384,9.25171 27.0069,8.99006 26.6493,8.64444 26.3633,8.21607 26.0784,7.7877 25.9354,7.22303 25.9354,6.52084 c 0,-0.67785 0.1321,-1.27295 0.3927,-1.78407 0.2631,-0.51113 0.6122,-0.9395 1.0497,-1.28511 0.4364,-0.34441 0.9407,-0.6024 1.5116,-0.77521 0.5709,-0.17281 1.16,-0.25921 1.7661,-0.25921 0.6982,0 1.3745,0.101 2.0267,0.30424 0.6521,0.20201 1.2412,0.54033 1.766,1.01616 z"
         fill="#ffffff"
         id="path834" />
      <path
         fill-rule="evenodd"
         clip-rule="evenodd"
         d="m 9.95173,23.7294 v 5.4353 c -0.26507,0.1657 -0.56576,0.311 -0.90232,0.4359 -0.33643,0.1237 -0.68594,0.2306 -1.0478,0.3194 -0.3621,0.0877 -0.72912,0.1525 -1.1013,0.1946 -0.37241,0.0408 -0.72144,0.0612 -1.04768,0.0612 -0.9179,0 -1.73614,-0.1549 -2.45507,-0.4671 C 2.67864,29.3976 2.07174,28.9773 1.57722,28.4477 1.08247,27.9181 0.705375,27.3033 0.445343,26.602 0.185192,25.9018 0.0551758,25.1621 0.0551758,24.3827 c 0,-0.819 0.1400912,-1.5828 0.4206322,-2.2889 0.280422,-0.7061 0.667952,-1.3174 1.162582,-1.8374 0.49452,-0.5187 1.08847,-0.9258 1.78208,-1.2225 0.69326,-0.2954 1.45309,-0.4443 2.27912,-0.4443 0.99922,0 1.81494,0.1273 2.44739,0.3819 0.63221,0.2546 1.16246,0.6052 1.59077,1.0508 L 8.69763,21.1595 C 8.24881,20.7236 7.77456,20.4198 7.27513,20.2492 6.77534,20.0775 6.25036,19.9922 5.69959,19.9922 c -0.62213,0 -1.1831,0.1165 -1.68253,0.3495 -0.49979,0.2342 -0.9281,0.5488 -1.28493,0.9427 -0.35706,0.3951 -0.63244,0.8586 -0.82603,1.3942 -0.19382,0.5344 -0.29061,1.1025 -0.29061,1.7041 0,0.6233 0.1071,1.2021 0.3212,1.7365 0.21409,0.5356 0.50986,1.0003 0.8872,1.3942 0.37721,0.3951 0.82063,0.7038 1.33074,0.9271 0.50987,0.2234 1.06543,0.3339 1.6673,0.3339 0.52006,0 1.01194,-0.0481 1.47611,-0.1477 0.46393,-0.0985 0.85889,-0.2414 1.18549,-0.4276 V 25.1309 H 6.08196 v -1.4015 z"
         fill="#ffffff"
         id="path836" />
      <path
         fill-rule="evenodd"
         clip-rule="evenodd"
         d="m 14.0807,23.7243 h 1.935 c 0.2865,0 0.5707,-0.0242 0.8525,-0.0714 0.2817,-0.0459 0.5322,-0.133 0.7525,-0.2588 0.2203,-0.1246 0.3961,-0.3048 0.5298,-0.5406 0.1324,-0.2346 0.1999,-0.5406 0.1999,-0.9167 0,-0.3774 -0.0675,-0.6821 -0.1999,-0.918 -0.1337,-0.2358 -0.3095,-0.416 -0.5298,-0.5406 -0.2203,-0.1257 -0.4708,-0.2116 -0.7525,-0.2588 -0.2818,-0.0471 -0.566,-0.0713 -0.8525,-0.0713 h -1.935 z m -1.4738,-4.8932 h 3.8242 c 0.6959,0 1.2691,0.0967 1.7194,0.2902 0.4503,0.1935 0.8055,0.439 1.0668,0.7365 0.2613,0.2988 0.4431,0.6338 0.5454,1.0038 0.1024,0.3713 0.153,0.7293 0.153,1.0752 0,0.3543 -0.0614,0.6978 -0.1843,1.0268 -0.1228,0.3289 -0.2986,0.6276 -0.5298,0.8937 -0.2299,0.2673 -0.5117,0.4922 -0.844,0.6748 -0.3323,0.1827 -0.7044,0.2951 -1.1138,0.3375 l 3.0873,5.0649 h -1.8435 l -2.7633,-4.8932 h -1.6436 v 4.8932 h -1.4738 z"
         fill="#ffffff"
         id="path838" />
      <path
         fill-rule="evenodd"
         clip-rule="evenodd"
         d="m 23.5013,18.8311 v 6.7823 c 0,0.3434 0.0459,0.7001 0.1378,1.0701 0.0931,0.37 0.2466,0.711 0.463,1.0243 0.2163,0.3122 0.498,0.5676 0.8485,0.7653 0.3482,0.1976 0.7797,0.2964 1.2947,0.2964 0.5137,0 0.9452,-0.0988 1.2946,-0.2964 0.3493,-0.1977 0.6322,-0.4531 0.8473,-0.7653 0.2164,-0.3133 0.3699,-0.6543 0.463,-1.0243 0.0931,-0.37 0.139,-0.7267 0.139,-1.0701 v -6.7823 h 1.4796 v 7.0161 c 0,0.6471 -0.1076,1.2328 -0.324,1.7582 -0.2151,0.5266 -0.5137,0.9822 -0.8933,1.3678 -0.3807,0.3856 -0.828,0.6821 -1.3417,0.8906 -0.5138,0.2084 -1.0686,0.3121 -1.6645,0.3121 -0.596,0 -1.152,-0.1037 -1.6658,-0.3121 -0.5137,-0.2085 -0.961,-0.505 -1.3405,-0.8906 -0.3808,-0.3856 -0.6782,-0.8412 -0.8945,-1.3678 -0.2152,-0.5254 -0.324,-1.1111 -0.324,-1.7582 v -7.0161 z"
         fill="#ffffff"
         id="path840" />
      <path
         fill-rule="evenodd"
         clip-rule="evenodd"
         d="m 34.344,23.7243 h 1.9156 c 0.2839,0 0.5654,-0.0242 0.8445,-0.0714 0.2791,-0.0459 0.5272,-0.133 0.7455,-0.2588 0.2182,-0.1246 0.3936,-0.3048 0.5248,-0.5406 0.1324,-0.2346 0.198,-0.5406 0.198,-0.9167 0,-0.3774 -0.0656,-0.6821 -0.198,-0.918 -0.1312,-0.2358 -0.3066,-0.416 -0.5248,-0.5406 -0.2183,-0.1257 -0.4664,-0.2116 -0.7455,-0.2588 -0.2791,-0.0471 -0.5606,-0.0713 -0.8445,-0.0713 H 34.344 Z m -1.4612,-4.8932 h 3.7883 c 0.6894,0 1.2572,0.0967 1.7033,0.2902 0.4461,0.1935 0.7991,0.439 1.0568,0.7365 0.2588,0.2988 0.4389,0.6338 0.5403,1.0038 0.1014,0.3713 0.1527,0.7293 0.1527,1.0752 0,0.3447 -0.0513,0.7026 -0.1527,1.0739 -0.1014,0.3713 -0.2815,0.7051 -0.5403,1.0038 -0.2577,0.2975 -0.6107,0.543 -1.0568,0.7365 -0.4461,0.1935 -1.0139,0.2903 -1.7033,0.2903 H 34.344 v 4.8932 h -1.4612 z"
         fill="#ffffff"
         id="path842" />
      <path
         fill-rule="evenodd"
         clip-rule="evenodd"
         d="m 43.5154,23.7243 h 1.9171 c 0.2839,0 0.5655,-0.0242 0.8446,-0.0714 0.2792,-0.0459 0.5273,-0.133 0.7456,-0.2588 0.2172,-0.1246 0.3925,-0.3048 0.5249,-0.5406 0.1313,-0.2346 0.1981,-0.5406 0.1981,-0.9167 0,-0.3774 -0.0668,-0.6821 -0.1981,-0.918 -0.1324,-0.2358 -0.3077,-0.416 -0.5249,-0.5406 -0.2183,-0.1257 -0.4664,-0.2116 -0.7456,-0.2588 -0.2791,-0.0471 -0.5607,-0.0713 -0.8446,-0.0713 h -1.9171 z m -1.4602,-4.8932 h 3.7877 c 0.6895,0 1.2574,0.0967 1.7047,0.2902 0.4462,0.1935 0.7982,0.439 1.057,0.7365 0.2589,0.2988 0.439,0.6338 0.5404,1.0038 0.1014,0.3713 0.1516,0.7293 0.1516,1.0752 0,0.3447 -0.0502,0.7026 -0.1516,1.0739 -0.1014,0.3713 -0.2815,0.7051 -0.5404,1.0038 -0.2588,0.2975 -0.6108,0.543 -1.057,0.7365 -0.4473,0.1935 -1.0152,0.2903 -1.7047,0.2903 h -2.3275 v 4.8932 h -1.4602 z"
         fill="#ffffff"
         id="path844" />
      <path
         fill-rule="evenodd"
         clip-rule="evenodd"
         d="m 51.2275,18.8311 h 6.9677 v 1.4113 h -5.5034 v 3.3089 h 5.1221 v 1.4114 h -5.1221 v 3.5604 h 5.7771 v 1.4114 h -7.2414 z"
         fill="#ffffff"
         id="path846" />
      <path
         fill-rule="evenodd"
         clip-rule="evenodd"
         d="m 60.6416,18.8311 h 1.9309 l 5.9801,9.1273 h 0.0312 v -9.1273 h 1.4716 v 11.1034 h -1.8707 l -6.0415,-9.1273 h -0.03 v 9.1273 h -1.4716 z"
         fill="#ffffff"
         id="path848" />
    </g>
  </g>
</svg>
